<mxfile host="65bd71144e">
    <diagram id="HC3soLOPeSZYTvjzufaG" name="Page-1">
        <mxGraphModel dx="1175" dy="1327" grid="1" gridSize="10" guides="1" tooltips="1" connect="1" arrows="1" fold="1" page="1" pageScale="1" pageWidth="850" pageHeight="1100" math="0" shadow="0">
            <root>
                <mxCell id="0"/>
                <mxCell id="1" parent="0"/>
                <mxCell id="2" value="" style="rounded=0;whiteSpace=wrap;html=1;" parent="1" vertex="1">
                    <mxGeometry x="20" y="60" width="1140" height="720" as="geometry"/>
                </mxCell>
                <mxCell id="3" value="" style="rounded=0;whiteSpace=wrap;html=1;" parent="1" vertex="1">
                    <mxGeometry x="20" y="60" width="1140" height="80" as="geometry"/>
                </mxCell>
                <mxCell id="9" value="Tatsumaki" style="text;html=1;strokeColor=none;fillColor=none;align=center;verticalAlign=middle;whiteSpace=wrap;rounded=0;fontSize=37;" parent="1" vertex="1">
                    <mxGeometry x="30" y="80" width="190" height="40" as="geometry"/>
                </mxCell>
                <mxCell id="10" value="&lt;font style=&quot;font-size: 23px&quot;&gt;&lt;u&gt;アカウント&lt;/u&gt;&lt;/font&gt;" style="text;html=1;strokeColor=none;fillColor=none;align=center;verticalAlign=middle;whiteSpace=wrap;rounded=0;fontSize=37;" parent="1" vertex="1">
                    <mxGeometry x="988" y="80" width="140" height="40" as="geometry"/>
                </mxCell>
                <mxCell id="15" value="&lt;font style=&quot;font-size: 24px&quot;&gt;太郎→花子&lt;/font&gt;" style="text;html=1;strokeColor=none;fillColor=none;align=left;verticalAlign=middle;whiteSpace=wrap;rounded=0;fontSize=37;" parent="1" vertex="1">
                    <mxGeometry x="180" y="220" width="190" height="40" as="geometry"/>
                </mxCell>
                <mxCell id="16" value="&lt;font style=&quot;font-size: 24px&quot;&gt;花子→太郎&lt;/font&gt;" style="text;html=1;strokeColor=none;fillColor=none;align=left;verticalAlign=middle;whiteSpace=wrap;rounded=0;fontSize=37;" parent="1" vertex="1">
                    <mxGeometry x="777.5" y="220" width="190" height="40" as="geometry"/>
                </mxCell>
                <mxCell id="55" value="" style="shape=table;html=1;whiteSpace=wrap;startSize=0;container=1;collapsible=0;childLayout=tableLayout;fontSize=24;" parent="1" vertex="1">
                    <mxGeometry x="50" y="470" width="1078" height="220" as="geometry"/>
                </mxCell>
                <mxCell id="56" value="" style="shape=partialRectangle;html=1;whiteSpace=wrap;collapsible=0;dropTarget=0;pointerEvents=0;fillColor=none;top=0;left=0;bottom=0;right=0;points=[[0,0.5],[1,0.5]];portConstraint=eastwest;fontSize=24;" parent="55" vertex="1">
                    <mxGeometry width="1078" height="55" as="geometry"/>
                </mxCell>
                <mxCell id="57" value="日付" style="shape=partialRectangle;html=1;whiteSpace=wrap;connectable=0;fillColor=none;top=0;left=0;bottom=0;right=0;overflow=hidden;pointerEvents=1;fontSize=24;" parent="56" vertex="1">
                    <mxGeometry width="154" height="55" as="geometry">
                        <mxRectangle width="154" height="55" as="alternateBounds"/>
                    </mxGeometry>
                </mxCell>
                <mxCell id="58" value="金額" style="shape=partialRectangle;html=1;whiteSpace=wrap;connectable=0;fillColor=none;top=0;left=0;bottom=0;right=0;overflow=hidden;pointerEvents=1;fontSize=24;" parent="56" vertex="1">
                    <mxGeometry x="154" width="154" height="55" as="geometry">
                        <mxRectangle width="154" height="55" as="alternateBounds"/>
                    </mxGeometry>
                </mxCell>
                <mxCell id="59" value="折半 or 個別" style="shape=partialRectangle;html=1;whiteSpace=wrap;connectable=0;fillColor=none;top=0;left=0;bottom=0;right=0;overflow=hidden;pointerEvents=1;fontSize=24;" parent="56" vertex="1">
                    <mxGeometry x="308" width="155" height="55" as="geometry">
                        <mxRectangle width="155" height="55" as="alternateBounds"/>
                    </mxGeometry>
                </mxCell>
                <mxCell id="87" value="払った人" style="shape=partialRectangle;html=1;whiteSpace=wrap;connectable=0;fillColor=none;top=0;left=0;bottom=0;right=0;overflow=hidden;pointerEvents=1;fontSize=24;" parent="56" vertex="1">
                    <mxGeometry x="463" width="153" height="55" as="geometry">
                        <mxRectangle width="153" height="55" as="alternateBounds"/>
                    </mxGeometry>
                </mxCell>
                <mxCell id="98" style="shape=partialRectangle;html=1;whiteSpace=wrap;connectable=0;fillColor=none;top=0;left=0;bottom=0;right=0;overflow=hidden;pointerEvents=1;fontSize=24;" parent="56" vertex="1">
                    <mxGeometry x="616" width="154" height="55" as="geometry">
                        <mxRectangle width="154" height="55" as="alternateBounds"/>
                    </mxGeometry>
                </mxCell>
                <mxCell id="108" value="内容" style="shape=partialRectangle;html=1;whiteSpace=wrap;connectable=0;fillColor=none;top=0;left=0;bottom=0;right=0;overflow=hidden;pointerEvents=1;fontSize=24;" vertex="1" parent="56">
                    <mxGeometry x="770" width="154" height="55" as="geometry">
                        <mxRectangle width="154" height="55" as="alternateBounds"/>
                    </mxGeometry>
                </mxCell>
                <mxCell id="112" value="メモ" style="shape=partialRectangle;html=1;whiteSpace=wrap;connectable=0;fillColor=none;top=0;left=0;bottom=0;right=0;overflow=hidden;pointerEvents=1;fontSize=24;" vertex="1" parent="56">
                    <mxGeometry x="924" width="154" height="55" as="geometry">
                        <mxRectangle width="154" height="55" as="alternateBounds"/>
                    </mxGeometry>
                </mxCell>
                <mxCell id="60" value="" style="shape=partialRectangle;html=1;whiteSpace=wrap;collapsible=0;dropTarget=0;pointerEvents=0;fillColor=none;top=0;left=0;bottom=0;right=0;points=[[0,0.5],[1,0.5]];portConstraint=eastwest;fontSize=24;" parent="55" vertex="1">
                    <mxGeometry y="55" width="1078" height="57" as="geometry"/>
                </mxCell>
                <mxCell id="61" value="2022/04/22" style="shape=partialRectangle;html=1;whiteSpace=wrap;connectable=0;fillColor=none;top=0;left=0;bottom=0;right=0;overflow=hidden;pointerEvents=1;fontSize=24;" parent="60" vertex="1">
                    <mxGeometry width="154" height="57" as="geometry">
                        <mxRectangle width="154" height="57" as="alternateBounds"/>
                    </mxGeometry>
                </mxCell>
                <mxCell id="62" value="1,200" style="shape=partialRectangle;html=1;whiteSpace=wrap;connectable=0;fillColor=none;top=0;left=0;bottom=0;right=0;overflow=hidden;pointerEvents=1;fontSize=24;" parent="60" vertex="1">
                    <mxGeometry x="154" width="154" height="57" as="geometry">
                        <mxRectangle width="154" height="57" as="alternateBounds"/>
                    </mxGeometry>
                </mxCell>
                <mxCell id="63" value="折半" style="shape=partialRectangle;html=1;whiteSpace=wrap;connectable=0;fillColor=none;top=0;left=0;bottom=0;right=0;overflow=hidden;pointerEvents=1;fontSize=24;" parent="60" vertex="1">
                    <mxGeometry x="308" width="155" height="57" as="geometry">
                        <mxRectangle width="155" height="57" as="alternateBounds"/>
                    </mxGeometry>
                </mxCell>
                <mxCell id="88" value="太郎" style="shape=partialRectangle;html=1;whiteSpace=wrap;connectable=0;fillColor=none;top=0;left=0;bottom=0;right=0;overflow=hidden;pointerEvents=1;fontSize=24;" parent="60" vertex="1">
                    <mxGeometry x="463" width="153" height="57" as="geometry">
                        <mxRectangle width="153" height="57" as="alternateBounds"/>
                    </mxGeometry>
                </mxCell>
                <mxCell id="99" value="&lt;u&gt;編集・削除&lt;/u&gt;" style="shape=partialRectangle;html=1;whiteSpace=wrap;connectable=0;fillColor=none;top=0;left=0;bottom=0;right=0;overflow=hidden;pointerEvents=1;fontSize=24;" parent="60" vertex="1">
                    <mxGeometry x="616" width="154" height="57" as="geometry">
                        <mxRectangle width="154" height="57" as="alternateBounds"/>
                    </mxGeometry>
                </mxCell>
                <mxCell id="109" value="日用品" style="shape=partialRectangle;html=1;whiteSpace=wrap;connectable=0;fillColor=none;top=0;left=0;bottom=0;right=0;overflow=hidden;pointerEvents=1;fontSize=24;" vertex="1" parent="60">
                    <mxGeometry x="770" width="154" height="57" as="geometry">
                        <mxRectangle width="154" height="57" as="alternateBounds"/>
                    </mxGeometry>
                </mxCell>
                <mxCell id="114" style="shape=partialRectangle;html=1;whiteSpace=wrap;connectable=0;fillColor=none;top=0;left=0;bottom=0;right=0;overflow=hidden;pointerEvents=1;fontSize=24;" vertex="1" parent="60">
                    <mxGeometry x="924" width="154" height="57" as="geometry">
                        <mxRectangle width="154" height="57" as="alternateBounds"/>
                    </mxGeometry>
                </mxCell>
                <mxCell id="64" value="" style="shape=partialRectangle;html=1;whiteSpace=wrap;collapsible=0;dropTarget=0;pointerEvents=0;fillColor=none;top=0;left=0;bottom=0;right=0;points=[[0,0.5],[1,0.5]];portConstraint=eastwest;fontSize=24;" parent="55" vertex="1">
                    <mxGeometry y="112" width="1078" height="55" as="geometry"/>
                </mxCell>
                <mxCell id="65" value="2022/04/21" style="shape=partialRectangle;html=1;whiteSpace=wrap;connectable=0;fillColor=none;top=0;left=0;bottom=0;right=0;overflow=hidden;pointerEvents=1;fontSize=24;" parent="64" vertex="1">
                    <mxGeometry width="154" height="55" as="geometry">
                        <mxRectangle width="154" height="55" as="alternateBounds"/>
                    </mxGeometry>
                </mxCell>
                <mxCell id="66" value="20,000" style="shape=partialRectangle;html=1;whiteSpace=wrap;connectable=0;fillColor=none;top=0;left=0;bottom=0;right=0;overflow=hidden;pointerEvents=1;fontSize=24;" parent="64" vertex="1">
                    <mxGeometry x="154" width="154" height="55" as="geometry">
                        <mxRectangle width="154" height="55" as="alternateBounds"/>
                    </mxGeometry>
                </mxCell>
                <mxCell id="67" value="個別" style="shape=partialRectangle;html=1;whiteSpace=wrap;connectable=0;fillColor=none;top=0;left=0;bottom=0;right=0;overflow=hidden;pointerEvents=1;fontSize=24;" parent="64" vertex="1">
                    <mxGeometry x="308" width="155" height="55" as="geometry">
                        <mxRectangle width="155" height="55" as="alternateBounds"/>
                    </mxGeometry>
                </mxCell>
                <mxCell id="89" value="太郎" style="shape=partialRectangle;html=1;whiteSpace=wrap;connectable=0;fillColor=none;top=0;left=0;bottom=0;right=0;overflow=hidden;pointerEvents=1;fontSize=24;" parent="64" vertex="1">
                    <mxGeometry x="463" width="153" height="55" as="geometry">
                        <mxRectangle width="153" height="55" as="alternateBounds"/>
                    </mxGeometry>
                </mxCell>
                <mxCell id="100" value="&lt;span&gt;&lt;u&gt;編集・削除&lt;/u&gt;&lt;/span&gt;" style="shape=partialRectangle;html=1;whiteSpace=wrap;connectable=0;fillColor=none;top=0;left=0;bottom=0;right=0;overflow=hidden;pointerEvents=1;fontSize=24;" parent="64" vertex="1">
                    <mxGeometry x="616" width="154" height="55" as="geometry">
                        <mxRectangle width="154" height="55" as="alternateBounds"/>
                    </mxGeometry>
                </mxCell>
                <mxCell id="110" value="&lt;span&gt;外食&lt;/span&gt;" style="shape=partialRectangle;html=1;whiteSpace=wrap;connectable=0;fillColor=none;top=0;left=0;bottom=0;right=0;overflow=hidden;pointerEvents=1;fontSize=24;" vertex="1" parent="64">
                    <mxGeometry x="770" width="154" height="55" as="geometry">
                        <mxRectangle width="154" height="55" as="alternateBounds"/>
                    </mxGeometry>
                </mxCell>
                <mxCell id="115" style="shape=partialRectangle;html=1;whiteSpace=wrap;connectable=0;fillColor=none;top=0;left=0;bottom=0;right=0;overflow=hidden;pointerEvents=1;fontSize=24;" vertex="1" parent="64">
                    <mxGeometry x="924" width="154" height="55" as="geometry">
                        <mxRectangle width="154" height="55" as="alternateBounds"/>
                    </mxGeometry>
                </mxCell>
                <mxCell id="90" style="shape=partialRectangle;html=1;whiteSpace=wrap;collapsible=0;dropTarget=0;pointerEvents=0;fillColor=none;top=0;left=0;bottom=0;right=0;points=[[0,0.5],[1,0.5]];portConstraint=eastwest;fontSize=24;" parent="55" vertex="1">
                    <mxGeometry y="167" width="1078" height="53" as="geometry"/>
                </mxCell>
                <mxCell id="91" value="&lt;span&gt;2022/04/19&lt;/span&gt;" style="shape=partialRectangle;html=1;whiteSpace=wrap;connectable=0;fillColor=none;top=0;left=0;bottom=0;right=0;overflow=hidden;pointerEvents=1;fontSize=24;" parent="90" vertex="1">
                    <mxGeometry width="154" height="53" as="geometry">
                        <mxRectangle width="154" height="53" as="alternateBounds"/>
                    </mxGeometry>
                </mxCell>
                <mxCell id="92" value="4,000" style="shape=partialRectangle;html=1;whiteSpace=wrap;connectable=0;fillColor=none;top=0;left=0;bottom=0;right=0;overflow=hidden;pointerEvents=1;fontSize=24;" parent="90" vertex="1">
                    <mxGeometry x="154" width="154" height="53" as="geometry">
                        <mxRectangle width="154" height="53" as="alternateBounds"/>
                    </mxGeometry>
                </mxCell>
                <mxCell id="93" value="個別" style="shape=partialRectangle;html=1;whiteSpace=wrap;connectable=0;fillColor=none;top=0;left=0;bottom=0;right=0;overflow=hidden;pointerEvents=1;fontSize=24;" parent="90" vertex="1">
                    <mxGeometry x="308" width="155" height="53" as="geometry">
                        <mxRectangle width="155" height="53" as="alternateBounds"/>
                    </mxGeometry>
                </mxCell>
                <mxCell id="94" value="花子" style="shape=partialRectangle;html=1;whiteSpace=wrap;connectable=0;fillColor=none;top=0;left=0;bottom=0;right=0;overflow=hidden;pointerEvents=1;fontSize=24;" parent="90" vertex="1">
                    <mxGeometry x="463" width="153" height="53" as="geometry">
                        <mxRectangle width="153" height="53" as="alternateBounds"/>
                    </mxGeometry>
                </mxCell>
                <mxCell id="101" value="&lt;span&gt;&lt;u&gt;編集・削除&lt;/u&gt;&lt;/span&gt;" style="shape=partialRectangle;html=1;whiteSpace=wrap;connectable=0;fillColor=none;top=0;left=0;bottom=0;right=0;overflow=hidden;pointerEvents=1;fontSize=24;" parent="90" vertex="1">
                    <mxGeometry x="616" width="154" height="53" as="geometry">
                        <mxRectangle width="154" height="53" as="alternateBounds"/>
                    </mxGeometry>
                </mxCell>
                <mxCell id="111" value="外食" style="shape=partialRectangle;html=1;whiteSpace=wrap;connectable=0;fillColor=none;top=0;left=0;bottom=0;right=0;overflow=hidden;pointerEvents=1;fontSize=24;" vertex="1" parent="90">
                    <mxGeometry x="770" width="154" height="53" as="geometry">
                        <mxRectangle width="154" height="53" as="alternateBounds"/>
                    </mxGeometry>
                </mxCell>
                <mxCell id="113" value="xxxで食べた" style="shape=partialRectangle;html=1;whiteSpace=wrap;connectable=0;fillColor=none;top=0;left=0;bottom=0;right=0;overflow=hidden;pointerEvents=1;fontSize=24;" vertex="1" parent="90">
                    <mxGeometry x="924" width="154" height="53" as="geometry">
                        <mxRectangle width="154" height="53" as="alternateBounds"/>
                    </mxGeometry>
                </mxCell>
                <mxCell id="97" value="" style="html=1;verticalLabelPosition=bottom;align=center;labelBackgroundColor=#ffffff;verticalAlign=top;strokeWidth=2;strokeColor=#3A5431;shadow=0;dashed=0;shape=mxgraph.ios7.icons.add;fontSize=24;fillColor=#6d8764;fontColor=#ffffff;" parent="1" vertex="1">
                    <mxGeometry x="1090" y="710" width="47.5" height="50" as="geometry"/>
                </mxCell>
                <mxCell id="102" value="&lt;span style=&quot;font-size: 24px&quot;&gt;2022/04 分&lt;/span&gt;" style="text;html=1;strokeColor=none;fillColor=none;align=left;verticalAlign=middle;whiteSpace=wrap;rounded=0;fontSize=37;" parent="1" vertex="1">
                    <mxGeometry x="530" y="155" width="190" height="40" as="geometry"/>
                </mxCell>
                <mxCell id="103" value="" style="group" parent="1" vertex="1" connectable="0">
                    <mxGeometry x="175" y="270" width="250" height="170" as="geometry"/>
                </mxCell>
                <mxCell id="13" value="" style="rounded=0;whiteSpace=wrap;html=1;fontSize=23;fillColor=#6d8764;fontColor=#ffffff;strokeColor=#3A5431;" parent="103" vertex="1">
                    <mxGeometry width="250" height="170" as="geometry"/>
                </mxCell>
                <mxCell id="17" value="19,000" style="text;html=1;strokeColor=none;fillColor=none;align=center;verticalAlign=middle;whiteSpace=wrap;rounded=0;fontSize=24;" parent="103" vertex="1">
                    <mxGeometry x="95" y="50" width="60" height="30" as="geometry"/>
                </mxCell>
                <mxCell id="19" value="合計: 20,000" style="text;html=1;strokeColor=none;fillColor=none;align=center;verticalAlign=middle;whiteSpace=wrap;rounded=0;fontSize=24;" parent="103" vertex="1">
                    <mxGeometry x="22.5" y="90" width="205" height="30" as="geometry"/>
                </mxCell>
                <mxCell id="104" value="" style="group" parent="1" vertex="1" connectable="0">
                    <mxGeometry x="777.5" y="270" width="250" height="170" as="geometry"/>
                </mxCell>
                <mxCell id="14" value="" style="rounded=0;whiteSpace=wrap;html=1;fontSize=23;fillColor=#6d8764;fontColor=#ffffff;strokeColor=#3A5431;" parent="104" vertex="1">
                    <mxGeometry width="250" height="170" as="geometry"/>
                </mxCell>
                <mxCell id="18" value="0" style="text;html=1;strokeColor=none;fillColor=none;align=center;verticalAlign=middle;whiteSpace=wrap;rounded=0;fontSize=24;" parent="104" vertex="1">
                    <mxGeometry x="95" y="60" width="60" height="30" as="geometry"/>
                </mxCell>
                <mxCell id="20" value="合計: 1,000" style="text;html=1;strokeColor=none;fillColor=none;align=center;verticalAlign=middle;whiteSpace=wrap;rounded=0;fontSize=24;" parent="104" vertex="1">
                    <mxGeometry x="22.5" y="100" width="205" height="30" as="geometry"/>
                </mxCell>
                <mxCell id="105" value="前の月" style="shape=singleArrow;direction=west;whiteSpace=wrap;html=1;fontSize=24;" parent="1" vertex="1">
                    <mxGeometry x="376.5" y="140" width="107.5" height="70" as="geometry"/>
                </mxCell>
                <mxCell id="107" value="次の月" style="shape=singleArrow;direction=east;whiteSpace=wrap;html=1;fontSize=24;" parent="1" vertex="1">
                    <mxGeometry x="677.5" y="145" width="100" height="60" as="geometry"/>
                </mxCell>
            </root>
        </mxGraphModel>
    </diagram>
</mxfile>
